<svg version="1.1" xmlns="http://www.w3.org/2000/svg" xmlns:xlink="http://www.w3.org/1999/xlink" viewBox="0 0 226 226"><g fill="none" fill-rule="nonzero" stroke="none" stroke-width="1" stroke-linecap="butt" stroke-linejoin="miter" stroke-miterlimit="10" stroke-dasharray="" stroke-dashoffset="0" font-family="none" font-weight="none" font-size="none" text-anchor="none" style="mix-blend-mode: normal"><path d="M0,226v-226h226v226z" fill="none"></path><g fill="#718d7d"><path d="M21.1875,18.08c-11.68844,0 -21.1875,9.34016 -21.1875,20.905c0,3.99031 2.29531,8.49266 4.8025,13.13625c2.18938,4.06094 4.66125,8.61625 4.66125,11.5825c0,2.5425 -1.44781,8.40437 -3.1075,14.69c-2.80734,10.57609 -6.35625,23.80062 -6.35625,34.60625c0,10.66438 3.46063,23.55344 6.215,33.9c1.71266,6.47984 3.24875,12.58891 3.24875,15.39625c0,3.30172 -2.43656,7.92766 -4.66125,12.00625c-2.45422,4.46703 -4.8025,8.7575 -4.8025,12.7125c0,11.56484 9.49906,20.905 21.1875,20.905c3.16047,0 7.78641,-1.46547 14.9725,-3.81375c7.45094,-2.43656 16.68516,-5.3675 22.6,-5.3675c4.74953,0 7.92766,1.92453 11.5825,4.2375c3.6725,2.31297 7.75109,4.94375 13.41875,4.94375c5.40281,0 10.25828,-2.34828 14.9725,-4.66125c4.74953,-2.33062 9.30484,-4.52 14.26625,-4.52c4.71422,0 7.92766,1.92453 11.5825,4.2375c3.6725,2.33062 7.75109,4.94375 13.41875,4.94375c5.75594,0 11.82969,-2.75438 17.65625,-5.3675c4.32578,-1.94219 8.79281,-3.81375 11.5825,-3.81375c3.47828,0 12.37703,2.64844 19.4925,4.8025c9.00469,2.73672 14.69,4.37875 18.08,4.37875c11.68844,0 21.1875,-9.34016 21.1875,-20.905c0,-3.99031 -2.29531,-8.49266 -4.8025,-13.13625c-2.18938,-4.06094 -4.66125,-8.61625 -4.66125,-11.5825c0,-2.59547 1.51844,-8.89875 3.24875,-15.5375c2.75438,-10.59375 6.215,-23.73 6.215,-33.75875c0,-9.90516 -3.37234,-22.84719 -6.07375,-33.19375c-1.78328,-6.83297 -3.39,-13.20687 -3.39,-16.1025c0,-3.30172 2.43656,-7.92766 4.66125,-12.00625c2.43656,-4.46703 4.8025,-8.7575 4.8025,-12.7125c0,-11.56484 -9.49906,-20.905 -21.1875,-20.905c-3.17812,0 -7.78641,1.43016 -14.9725,3.81375c-7.45094,2.47188 -16.70281,5.50875 -22.6,5.50875c-4.73188,0 -7.92766,-1.88922 -11.5825,-4.2375c-3.6725,-2.34828 -7.73344,-5.085 -13.41875,-5.085c-5.42047,0 -10.38188,2.45422 -15.11375,4.8025c-4.74953,2.36594 -9.16359,4.52 -14.125,4.52c-4.69656,0 -7.78641,-1.90687 -11.44125,-4.2375c-3.6725,-2.34828 -7.87469,-5.085 -13.56,-5.085c-5.77359,0 -11.82969,2.71906 -17.65625,5.3675c-4.32578,1.95984 -8.81047,3.955 -11.5825,3.955c-3.46062,0 -12.37703,-2.61312 -19.4925,-4.8025c-9.00469,-2.77203 -14.67234,-4.52 -18.08,-4.52zM40.68,58.76h144.64v108.48h-144.64zM108.48,81.36v27.12h-27.12v9.04h27.12v27.12h9.04v-27.12h27.12v-9.04h-27.12v-27.12z"></path></g></g></svg>