<svg version="1.1" xmlns="http://www.w3.org/2000/svg" xmlns:xlink="http://www.w3.org/1999/xlink" viewBox="0 0 226 226"><g fill="none" fill-rule="nonzero" stroke="none" stroke-width="1" stroke-linecap="butt" stroke-linejoin="miter" stroke-miterlimit="10" stroke-dasharray="" stroke-dashoffset="0" font-family="none" font-weight="none" font-size="none" text-anchor="none" style="mix-blend-mode: normal"><path d="M0,226v-226h226v226z" fill="none"></path><g fill="#fdfdfd"><path d="M113,9.04c-57.36516,0 -103.96,46.59484 -103.96,103.96c0,57.36516 46.59484,103.96 103.96,103.96c57.36516,0 103.96,-46.59484 103.96,-103.96c0,-57.36516 -46.59484,-103.96 -103.96,-103.96zM113,18.08c52.47437,0 94.92,42.44562 94.92,94.92c0,52.47437 -42.44563,94.92 -94.92,94.92c-52.47437,0 -94.92,-42.44563 -94.92,-94.92c0,-52.47437 42.44562,-94.92 94.92,-94.92zM90.4,81.36l-31.64,31.64l31.64,31.64v-27.12h81.36v-9.04h-81.36z"></path></g></g></svg>