<svg version="1.1" xmlns="http://www.w3.org/2000/svg" xmlns:xlink="http://www.w3.org/1999/xlink" viewBox="0 0 226 226"><g fill="none" fill-rule="nonzero" stroke="none" stroke-width="1" stroke-linecap="butt" stroke-linejoin="miter" stroke-miterlimit="10" stroke-dasharray="" stroke-dashoffset="0" font-family="none" font-weight="none" font-size="none" text-anchor="none" style="mix-blend-mode: normal"><path d="M0,226v-226h226v226z" fill="none"></path><g fill="#718d7d"><path d="M171.85417,28.25h-117.70833c-14.28037,0 -25.89583,11.61546 -25.89583,25.89583v117.70833c0,14.28037 11.61546,25.89583 25.89583,25.89583h117.70833c14.28037,0 25.89583,-11.61546 25.89583,-25.89583v-117.70833c0,-14.28037 -11.61546,-25.89583 -25.89583,-25.89583zM148.59971,138.60862c2.75908,2.75438 2.75908,7.232 0,9.98637c-1.37954,1.38425 -3.18754,2.07167 -4.99554,2.07167c-1.808,0 -3.616,-0.68742 -4.99554,-2.06696l-25.60862,-25.61333l-25.60863,25.60862c-1.37954,1.38425 -3.18754,2.07167 -4.99554,2.07167c-1.808,0 -3.616,-0.68742 -4.99554,-2.06696c-2.75908,-2.75438 -2.75908,-7.232 0,-9.98637l25.61333,-25.61333l-25.60863,-25.60863c-2.75908,-2.75438 -2.75908,-7.232 0,-9.98637c2.75908,-2.75908 7.22729,-2.75908 9.98637,0l25.60863,25.60863l25.60862,-25.60863c2.75908,-2.75908 7.22729,-2.75908 9.98637,0c2.75908,2.75438 2.75908,7.232 0,9.98637l-25.60862,25.60863z"></path></g></g></svg>