<svg version="1.1" xmlns="http://www.w3.org/2000/svg" xmlns:xlink="http://www.w3.org/1999/xlink" viewBox="0 0 226 226"><g fill="none" fill-rule="nonzero" stroke="none" stroke-width="1" stroke-linecap="butt" stroke-linejoin="miter" stroke-miterlimit="10" stroke-dasharray="" stroke-dashoffset="0" font-family="none" font-weight="none" font-size="none" text-anchor="none" style="mix-blend-mode: normal"><path d="M0,226v-226h226v226z" fill="none"></path><g fill="#718d7d"><path d="M113,22.6c-49.9234,0 -90.4,40.4766 -90.4,90.4c0,49.9234 40.4766,90.4 90.4,90.4c49.9234,0 90.4,-40.4766 90.4,-90.4c0,-49.9234 -40.4766,-90.4 -90.4,-90.4zM148.4594,137.80727c2.94553,2.94553 2.94553,7.7066 0,10.65213c-1.469,1.469 -3.39753,2.20727 -5.32607,2.20727c-1.92853,0 -3.85707,-0.73827 -5.32607,-2.20727l-24.80727,-24.80727l-24.80727,24.80727c-1.469,1.469 -3.39753,2.20727 -5.32607,2.20727c-1.92853,0 -3.85707,-0.73827 -5.32607,-2.20727c-2.94553,-2.94553 -2.94553,-7.7066 0,-10.65213l24.80727,-24.80727l-24.80727,-24.80727c-2.94553,-2.94553 -2.94553,-7.7066 0,-10.65213c2.94553,-2.94553 7.7066,-2.94553 10.65213,0l24.80727,24.80727l24.80727,-24.80727c2.94553,-2.94553 7.7066,-2.94553 10.65213,0c2.94553,2.94553 2.94553,7.7066 0,10.65213l-24.80727,24.80727z"></path></g></g></svg>