<?xml version="1.0" encoding="utf-8"?>
<!-- Generator: Adobe Illustrator 26.1.0, SVG Export Plug-In . SVG Version: 6.00 Build 0)  -->
<svg version="1.1" id="Layer_1" xmlns="http://www.w3.org/2000/svg" xmlns:xlink="http://www.w3.org/1999/xlink" x="0px" y="0px"
	 viewBox="0 0 310 310" style="enable-background:new 0 0 310 310;" xml:space="preserve">
<style type="text/css">
	.st0{fill:none;}
	.st1{fill:#3E3E3E;}
</style>
<g>
	<path class="st0" d="M51,249V23h226v226H51z"/>
	<g>
		<path class="st1" d="M163.9,22.9c-2.5,0-4.5,2.1-4.4,4.6v4.7c-0.4-0.1-0.8-0.1-1.1-0.1c-23.9,0-44.1,7.3-58.2,21.1
			s-22,34.2-22,59.2c0,13.8,3.5,27.5,4,41.5s-1.7,28.1-13.1,43.4c-0.7,1-1,2.2-0.8,3.5c0.2,1.2,0.9,2.3,1.9,3c0,0,5.1,3.4,15.1,7
			c9.8,3.6,24.8,7.5,45.1,9.8c8.9,10.6,18.8,17.5,29,19.1v4.9c0,1.6,0.8,3.1,2.2,4c1.4,0.8,3.1,0.8,4.6,0c1.4-0.8,2.3-2.3,2.2-4v-5
			c5.2-1.2,9.7-4.2,12.9-8.3c11.5-5.5,20.9-15.4,27.7-25.7c6.3-9.5,10.2-18.9,11.5-26.4c3.4-1.6,13.6-7.2,15.5-23.4
			c0.7-5.6-1-10.4-3.2-13.7c-1.3-2-2.6-2.8-4-3.9c3.2-10.1,7.3-25.7,7.3-42.8c0-7.9-1.6-18.6-6.9-28c-5-8.8-14-16-26.7-16.9
			c-5.2-8-16.1-16.6-34.1-18.2v-4.8c0-1.2-0.5-2.4-1.3-3.3C166.3,23.4,165.2,22.9,163.9,22.9L163.9,22.9z M159.5,40.9v79
			c-0.5,0.2-0.9,0.3-1.3,0.5c-8.1,2.5-20.9,4.3-32.1,9.7s-20.8,15.7-20.8,32.9c0,21,9.1,37.4,16.2,47.1c-14.6-2.2-25.5-5.3-33-8
			c-6.6-2.4-7.6-3.2-9.3-4.2c9.9-15.5,12.5-30.6,12-44.4c-0.5-15.2-4-29-4-41.2c0-23.1,7.1-40.7,19.3-52.7s29.9-18.5,51.9-18.5
			C158.7,41.1,159.1,41,159.5,40.9L159.5,40.9z M168.5,41.4c16.4,1.6,24.6,9.7,27.7,15.4c0.8,1.5,2.3,2.4,4,2.4
			c11,0,17.2,5.3,21.3,12.7c4.2,7.4,5.8,17,5.8,23.5c0,16.8-4.5,33.2-7.6,42.6c-0.6,2,0.1,4.1,1.9,5.2c0.8,0.5,2.5,1.9,3.8,3.8
			c1.3,1.9,2.2,4.3,1.8,7.7c-1.7,14.6-11.9,17.4-11.9,17.4c-1.7,0.6-2.8,2.1-3,3.8c-0.5,5-4.4,15.1-10.6,24.6s-15,18.4-24.5,22.8
			c-0.7,0.4-1.4,0.9-1.8,1.6c-1.6,2.4-4,4.2-6.8,5.2V126c15.6-7.7,23.3-20.9,26.8-29c4.1,4.5,9.4,12.9,9.4,25.5c0,1.6,0.8,3.1,2.2,4
			s3.1,0.8,4.6,0s2.3-2.3,2.2-4c0-22.5-14.3-34.3-16.8-36.3c-0.8-1-2.1-1.6-3.4-1.7c-0.5,0-1,0.1-1.4,0.2c-0.1,0-0.3,0.1-0.4,0.2
			c-0.1,0-0.2,0.1-0.3,0.2c-1.3,0.7-2.2,1.9-2.4,3.4c-0.2,0.9-4.5,17.4-20.3,27.3L168.5,41.4z M159.5,129.4v100.9
			c-7.3-1.6-15.4-6.9-23.1-16.4c-0.2-0.2-0.4-0.5-0.6-0.7c-0.1-0.2-0.3-0.3-0.4-0.4c-1-0.9-21.1-20.4-21.1-49.8
			c0-14.1,6.4-20.3,15.7-24.8C138.9,134,150.3,132.1,159.5,129.4z M139.1,149.6c-3.7,0-6.8,3-6.8,6.8s3,6.8,6.8,6.8
			c3.7,0,6.8-3,6.8-6.8S142.9,149.6,139.1,149.6z M188.9,149.6c-3.7,0-6.8,3-6.8,6.8s3,6.8,6.8,6.8s6.8-3,6.8-6.8
			S192.6,149.6,188.9,149.6z"/>
	</g>
</g>
</svg>
