<svg version="1.1" xmlns="http://www.w3.org/2000/svg" xmlns:xlink="http://www.w3.org/1999/xlink" viewBox="0 0 226 226"><g fill="none" fill-rule="nonzero" stroke="none" stroke-width="1" stroke-linecap="butt" stroke-linejoin="miter" stroke-miterlimit="10" stroke-dasharray="" stroke-dashoffset="0" font-family="none" font-weight="none" font-size="none" text-anchor="none" style="mix-blend-mode: normal"><path d="M0,226v-226h226v226z" fill="none"></path><g fill="#718d7d"><path d="M194.36,18.08h-162.72c-12.46531,0 -22.6,10.13469 -22.6,22.6v108.48c0,12.46531 10.13469,22.6 22.6,22.6h18.71563c1.53609,13.08328 -2.33062,21.96437 -12.00625,27.77328c-1.73031,1.04172 -2.57781,3.12516 -2.03047,5.06734c0.54734,1.95984 2.33063,3.31938 4.36109,3.31938c11.56484,0 39.35578,-3.60188 52.80984,-36.16h100.87016c12.46531,0 22.6,-10.13469 22.6,-22.6v-108.48c0,-12.46531 -10.13469,-22.6 -22.6,-22.6zM116.19578,129.75578l-6.39156,-6.39156l23.92422,-23.92422h-61.40844v-9.04h61.40844l-23.92422,-23.92422l6.39156,-6.39156l34.83578,34.83578z"></path></g></g></svg>