<svg version="1.1" xmlns="http://www.w3.org/2000/svg" xmlns:xlink="http://www.w3.org/1999/xlink" viewBox="0 0 226 226"><g fill="none" fill-rule="nonzero" stroke="none" stroke-width="1" stroke-linecap="butt" stroke-linejoin="miter" stroke-miterlimit="10" stroke-dasharray="" stroke-dashoffset="0" font-family="none" font-weight="none" font-size="none" text-anchor="none" style="mix-blend-mode: normal"><path d="M0,226v-226h226v226z" fill="none"></path><g fill="#718d7d"><path d="M113,18.83333c-51.33389,0 -94.16667,37.42214 -94.16667,84.75c0,47.32786 42.83278,84.75 94.16667,84.75c3.25975,0 6.26357,-0.65418 9.41667,-0.95638v30.08919l14.51123,-9.30631c20.36055,-13.06812 64.44787,-46.98968 69.7054,-95.67481c0.33333,-2.89622 0.53337,-5.86251 0.53337,-8.90169c0,-47.32786 -42.83278,-84.75 -94.16667,-84.75zM113,37.66667c42.28662,0 75.33333,30.03886 75.33333,65.91667c0,2.26562 -0.14039,4.52589 -0.40462,6.80501v0.03678l-0.01839,0.03679c-3.25421,30.13862 -27.37966,53.81042 -46.66032,69.2456v-14.23534l-11.27425,2.28059c-5.51488,1.11326 -11.18143,1.74723 -16.97575,1.74723c-42.28661,0 -75.33333,-30.03886 -75.33333,-65.91667c0,-35.87781 33.04672,-65.91667 75.33333,-65.91667zM122.41667,65.91667v28.25h-56.5v18.83333h56.5v28.25l37.66667,-37.66667z"></path></g></g></svg>