<?xml version="1.0" encoding="utf-8"?>
<!-- Generator: Adobe Illustrator 26.1.0, SVG Export Plug-In . SVG Version: 6.00 Build 0)  -->
<svg version="1.1" id="Layer_1" xmlns="http://www.w3.org/2000/svg" xmlns:xlink="http://www.w3.org/1999/xlink" x="0px" y="0px"
	 viewBox="0 0 500 500" style="enable-background:new 0 0 500 500;" xml:space="preserve">
<style type="text/css">
	.st0{fill:#718D7D;}
</style>
<g>
	<path class="st0" d="M174.6,362.4c24.8,17.3,49.5,34.7,75.3,52.7c-25.5,17.9-50.4,35.3-75.1,52.7c-2.2-1.8-1.5-3.8-1.5-5.5
		c-0.1-8.5-0.2-17,0-25.5c0.1-3.7-1.3-5.1-5-5.8c-30.5-5.5-60.1-13.6-87.5-28.5c-11.8-6.4-22.8-13.9-31.7-24.1
		c-18.3-21.1-18.4-43.8,0.3-64.8c15.1-16.9,34.9-27,55.8-35c0.3-0.1,0.6,0.1,1.4,0.2c-2,6.2-3.9,12.3-5.9,18.3
		c-0.6,1.7-2.4,2.2-3.8,3c-8.8,5.2-17.2,10.8-23.6,19c-10,12.8-9.5,27.9,1.3,40.1c10.1,11.4,23,18.6,36.7,24.5
		c18.8,8,38.4,13.2,58.5,16.7c0.8,0.1,1.6,0.1,3.2,0.2c0-12.6,0-25,0-37.4C173.5,363,174.1,362.7,174.6,362.4z"/>
	<path class="st0" d="M393.5,278.9c0.8-0.1,1.4-0.3,1.8-0.1c21.2,8.4,41.6,18.4,56.6,36.4c18.2,21.8,17,45.4-3,65.8
		c-16,16.4-36,26.3-57,34.2c-29.3,11.1-59.8,17.1-90.9,20.2c-5.1,0.5-10.3,0.8-15.4,1.5c-3.3,0.5-4.6-0.6-4.6-3.9
		c0.1-7.3,0.1-14.7,0-22c-0.1-3.4,1.3-4.6,4.7-4.8c25-1.6,49.6-5.5,73.8-12.1c15.8-4.3,31.1-9.9,45.3-18.1c6.8-4,13.1-8.5,18.6-14.2
		c14.3-14.8,14.4-31.7,0.1-46.5c-5.8-6-12.7-10.8-20-14.8c-2.7-1.5-4.2-3.3-5-6.3C397,289,395.2,284.1,393.5,278.9z"/>
</g>
</svg>
